<mxfile host="65bd71144e">
    <diagram id="tuGNhOy0ELro_hJdkqRt" name="Page-1">
        <mxGraphModel dx="1840" dy="924" grid="1" gridSize="10" guides="1" tooltips="1" connect="1" arrows="1" fold="1" page="1" pageScale="1" pageWidth="850" pageHeight="1100" math="0" shadow="0">
            <root>
                <mxCell id="0"/>
                <mxCell id="1" parent="0"/>
                <mxCell id="2" value="Users" style="swimlane;fontStyle=0;childLayout=stackLayout;horizontal=1;startSize=26;fillColor=none;horizontalStack=0;resizeParent=1;resizeParentMax=0;resizeLast=0;collapsible=1;marginBottom=0;html=1;" vertex="1" parent="1">
                    <mxGeometry x="30" y="160" width="150" height="242" as="geometry">
                        <mxRectangle x="50" y="170" width="70" height="30" as="alternateBounds"/>
                    </mxGeometry>
                </mxCell>
                <mxCell id="3" value="&lt;span&gt;&lt;/span&gt;&lt;span&gt;&lt;/span&gt;&lt;span style=&quot;white-space:pre-wrap;&quot;&gt;id      uuid      pk&lt;/span&gt;" style="text;strokeColor=none;fillColor=none;align=left;verticalAlign=top;spacingLeft=4;spacingRight=4;overflow=hidden;rotatable=0;points=[[0,0.5],[1,0.5]];portConstraint=eastwest;whiteSpace=wrap;html=1;" vertex="1" parent="2">
                    <mxGeometry y="26" width="150" height="24" as="geometry"/>
                </mxCell>
                <mxCell id="15" value="&lt;span&gt;&lt;/span&gt;&lt;span&gt;&lt;/span&gt;&lt;span style=&quot;white-space-collapse: preserve;&quot;&gt;email  varchar(50)&lt;br&gt;&lt;/span&gt;" style="text;strokeColor=none;fillColor=none;align=left;verticalAlign=top;spacingLeft=4;spacingRight=4;overflow=hidden;rotatable=0;points=[[0,0.5],[1,0.5]];portConstraint=eastwest;whiteSpace=wrap;html=1;" vertex="1" parent="2">
                    <mxGeometry y="50" width="150" height="26" as="geometry"/>
                </mxCell>
                <mxCell id="4" value="&lt;span&gt;&lt;/span&gt;&lt;span&gt;&lt;/span&gt;&lt;span style=&quot;white-space-collapse: preserve;&quot;&gt;password   text&lt;br&gt;&lt;/span&gt;" style="text;strokeColor=none;fillColor=none;align=left;verticalAlign=top;spacingLeft=4;spacingRight=4;overflow=hidden;rotatable=0;points=[[0,0.5],[1,0.5]];portConstraint=eastwest;whiteSpace=wrap;html=1;" vertex="1" parent="2">
                    <mxGeometry y="76" width="150" height="26" as="geometry"/>
                </mxCell>
                <mxCell id="16" value="&lt;span&gt;&lt;/span&gt;&lt;span&gt;&lt;/span&gt;&lt;span style=&quot;white-space:pre-wrap;&quot;&gt; first_name   varchar(250)&lt;br&gt;&lt;/span&gt;" style="text;whiteSpace=wrap;html=1;" vertex="1" parent="2">
                    <mxGeometry y="102" width="150" height="30" as="geometry"/>
                </mxCell>
                <mxCell id="17" value="&lt;span&gt;&lt;/span&gt;&lt;span&gt;&lt;/span&gt;&lt;span style=&quot;white-space:pre-wrap;&quot;&gt; last_name   varchar(250)&lt;br&gt;&lt;br&gt;&lt;/span&gt;" style="text;whiteSpace=wrap;html=1;" vertex="1" parent="2">
                    <mxGeometry y="132" width="150" height="28" as="geometry"/>
                </mxCell>
                <mxCell id="14" value="created_at&amp;nbsp; &amp;nbsp;timestamp" style="text;strokeColor=none;fillColor=none;align=left;verticalAlign=top;spacingLeft=4;spacingRight=4;overflow=hidden;rotatable=0;points=[[0,0.5],[1,0.5]];portConstraint=eastwest;whiteSpace=wrap;html=1;" vertex="1" parent="2">
                    <mxGeometry y="160" width="150" height="26" as="geometry"/>
                </mxCell>
                <mxCell id="13" value="updated_at&amp;nbsp; &amp;nbsp;&lt;span style=&quot;color: rgb(0, 0, 0);&quot;&gt;timestamp&lt;/span&gt;" style="text;strokeColor=none;fillColor=none;align=left;verticalAlign=top;spacingLeft=4;spacingRight=4;overflow=hidden;rotatable=0;points=[[0,0.5],[1,0.5]];portConstraint=eastwest;whiteSpace=wrap;html=1;" vertex="1" parent="2">
                    <mxGeometry y="186" width="150" height="26" as="geometry"/>
                </mxCell>
                <mxCell id="18" value="&lt;span&gt;&lt;/span&gt;&lt;span&gt;&lt;/span&gt;&lt;span style=&quot;white-space:pre-wrap;&quot;&gt; is_deleted   boolean&lt;br&gt;&lt;br&gt;&lt;/span&gt;" style="text;whiteSpace=wrap;html=1;" vertex="1" parent="2">
                    <mxGeometry y="212" width="150" height="30" as="geometry"/>
                </mxCell>
                <mxCell id="19" value="Orders" style="swimlane;fontStyle=0;childLayout=stackLayout;horizontal=1;startSize=26;fillColor=none;horizontalStack=0;resizeParent=1;resizeParentMax=0;resizeLast=0;collapsible=1;marginBottom=0;html=1;" vertex="1" parent="1">
                    <mxGeometry x="-210" y="480" width="150" height="282" as="geometry">
                        <mxRectangle x="50" y="170" width="70" height="30" as="alternateBounds"/>
                    </mxGeometry>
                </mxCell>
                <mxCell id="20" value="&lt;span&gt;&lt;/span&gt;&lt;span&gt;&lt;/span&gt;&lt;span style=&quot;white-space:pre-wrap;&quot;&gt;id      uuid      PK&lt;/span&gt;" style="text;strokeColor=none;fillColor=none;align=left;verticalAlign=top;spacingLeft=4;spacingRight=4;overflow=hidden;rotatable=0;points=[[0,0.5],[1,0.5]];portConstraint=eastwest;whiteSpace=wrap;html=1;" vertex="1" parent="19">
                    <mxGeometry y="26" width="150" height="24" as="geometry"/>
                </mxCell>
                <mxCell id="28" value="&lt;span&gt;&lt;/span&gt;&lt;span&gt;&lt;/span&gt;&lt;span style=&quot;white-space:pre-wrap;&quot;&gt;user_id   uuid   FK&lt;br&gt;&lt;/span&gt;" style="text;whiteSpace=wrap;html=1;" vertex="1" parent="19">
                    <mxGeometry y="50" width="150" height="30" as="geometry"/>
                </mxCell>
                <mxCell id="29" value="&lt;span&gt;&lt;/span&gt;&lt;span&gt;&lt;/span&gt;&lt;span style=&quot;white-space:pre-wrap;&quot;&gt;currency_id   uuid   FK&lt;br&gt;&lt;/span&gt;" style="text;whiteSpace=wrap;html=1;" vertex="1" parent="19">
                    <mxGeometry y="80" width="150" height="30" as="geometry"/>
                </mxCell>
                <mxCell id="30" value="&lt;span&gt;&lt;/span&gt;&lt;span&gt;&lt;/span&gt;&lt;span style=&quot;white-space:pre-wrap;&quot;&gt;type   varchar(10)&lt;br&gt;&lt;/span&gt;" style="text;whiteSpace=wrap;html=1;" vertex="1" parent="19">
                    <mxGeometry y="110" width="150" height="30" as="geometry"/>
                </mxCell>
                <mxCell id="31" value="&lt;span&gt;&lt;/span&gt;&lt;span&gt;&lt;/span&gt;&lt;span style=&quot;white-space:pre-wrap;&quot;&gt;price   numeric(20,10)&lt;br&gt;&lt;br&gt;&lt;/span&gt;" style="text;whiteSpace=wrap;html=1;" vertex="1" parent="19">
                    <mxGeometry y="140" width="150" height="30" as="geometry"/>
                </mxCell>
                <mxCell id="32" value="&lt;span&gt;&lt;/span&gt;&lt;span&gt;&lt;/span&gt;&lt;span style=&quot;white-space:pre-wrap;&quot;&gt;amount   numeric(30,10)&lt;br&gt;&lt;br&gt;&lt;/span&gt;" style="text;whiteSpace=wrap;html=1;" vertex="1" parent="19">
                    <mxGeometry y="170" width="150" height="30" as="geometry"/>
                </mxCell>
                <mxCell id="33" value="&lt;span&gt;&lt;/span&gt;&lt;span&gt;&lt;/span&gt;&lt;span style=&quot;white-space:pre-wrap;&quot;&gt;status   varchar(20)&lt;br&gt;&lt;br&gt;&lt;/span&gt;" style="text;whiteSpace=wrap;html=1;" vertex="1" parent="19">
                    <mxGeometry y="200" width="150" height="30" as="geometry"/>
                </mxCell>
                <mxCell id="25" value="created_at&amp;nbsp; &amp;nbsp;&lt;span style=&quot;color: rgb(0, 0, 0);&quot;&gt;timestamp&lt;/span&gt;" style="text;strokeColor=none;fillColor=none;align=left;verticalAlign=top;spacingLeft=4;spacingRight=4;overflow=hidden;rotatable=0;points=[[0,0.5],[1,0.5]];portConstraint=eastwest;whiteSpace=wrap;html=1;" vertex="1" parent="19">
                    <mxGeometry y="230" width="150" height="26" as="geometry"/>
                </mxCell>
                <mxCell id="26" value="updated_at&amp;nbsp; &amp;nbsp;&lt;span style=&quot;color: rgb(0, 0, 0);&quot;&gt;timestamp&lt;/span&gt;" style="text;strokeColor=none;fillColor=none;align=left;verticalAlign=top;spacingLeft=4;spacingRight=4;overflow=hidden;rotatable=0;points=[[0,0.5],[1,0.5]];portConstraint=eastwest;whiteSpace=wrap;html=1;" vertex="1" parent="19">
                    <mxGeometry y="256" width="150" height="26" as="geometry"/>
                </mxCell>
                <mxCell id="35" value="Transfers" style="swimlane;fontStyle=0;childLayout=stackLayout;horizontal=1;startSize=26;fillColor=none;horizontalStack=0;resizeParent=1;resizeParentMax=0;resizeLast=0;collapsible=1;marginBottom=0;html=1;" vertex="1" parent="1">
                    <mxGeometry x="640" y="160" width="150" height="282" as="geometry">
                        <mxRectangle x="50" y="170" width="70" height="30" as="alternateBounds"/>
                    </mxGeometry>
                </mxCell>
                <mxCell id="36" value="&lt;span&gt;&lt;/span&gt;&lt;span&gt;&lt;/span&gt;&lt;span style=&quot;white-space:pre-wrap;&quot;&gt;id      uuid      PK&lt;/span&gt;" style="text;strokeColor=none;fillColor=none;align=left;verticalAlign=top;spacingLeft=4;spacingRight=4;overflow=hidden;rotatable=0;points=[[0,0.5],[1,0.5]];portConstraint=eastwest;whiteSpace=wrap;html=1;" vertex="1" parent="35">
                    <mxGeometry y="26" width="150" height="24" as="geometry"/>
                </mxCell>
                <mxCell id="37" value="&lt;span&gt;&lt;/span&gt;&lt;span&gt;&lt;/span&gt;&lt;span&gt;&lt;/span&gt;&lt;span style=&quot;white-space-collapse: preserve;&quot;&gt;from_wallet_id&lt;/span&gt;&lt;span style=&quot;white-space:pre-wrap;&quot;&gt;   uuid   FK&lt;br&gt;&lt;/span&gt;" style="text;whiteSpace=wrap;html=1;" vertex="1" parent="35">
                    <mxGeometry y="50" width="150" height="30" as="geometry"/>
                </mxCell>
                <mxCell id="38" value="&lt;span&gt;&lt;/span&gt;&lt;span&gt;&lt;/span&gt;&lt;span&gt;&lt;/span&gt;&lt;span style=&quot;white-space-collapse: preserve;&quot;&gt;to_wallet_id&lt;/span&gt;&lt;span style=&quot;white-space:pre-wrap;&quot;&gt;   uuid   FK&lt;br&gt;&lt;/span&gt;" style="text;whiteSpace=wrap;html=1;" vertex="1" parent="35">
                    <mxGeometry y="80" width="150" height="30" as="geometry"/>
                </mxCell>
                <mxCell id="45" value="&lt;span&gt;&lt;/span&gt;&lt;span&gt;&lt;/span&gt;&lt;span&gt;&lt;/span&gt;&lt;span style=&quot;white-space-collapse: preserve;&quot;&gt;currency_id&lt;/span&gt;&lt;span style=&quot;white-space:pre-wrap;&quot;&gt;   uuid   FK&lt;br&gt;&lt;/span&gt;" style="text;whiteSpace=wrap;html=1;" vertex="1" parent="35">
                    <mxGeometry y="110" width="150" height="30" as="geometry"/>
                </mxCell>
                <mxCell id="46" value="&lt;span&gt;&lt;/span&gt;&lt;span&gt;&lt;/span&gt;&lt;span style=&quot;white-space:pre-wrap;&quot;&gt;to_address   varchar(255)&lt;br&gt;&lt;/span&gt;" style="text;whiteSpace=wrap;html=1;" vertex="1" parent="35">
                    <mxGeometry y="140" width="150" height="30" as="geometry"/>
                </mxCell>
                <mxCell id="47" value="&lt;span&gt;&lt;/span&gt;&lt;span&gt;&lt;/span&gt;&lt;span style=&quot;white-space:pre-wrap;&quot;&gt;amount   numeric(30,10)&lt;br&gt;&lt;/span&gt;" style="text;whiteSpace=wrap;html=1;" vertex="1" parent="35">
                    <mxGeometry y="170" width="150" height="30" as="geometry"/>
                </mxCell>
                <mxCell id="48" value="&lt;span&gt;&lt;/span&gt;&lt;span&gt;&lt;/span&gt;&lt;span style=&quot;white-space:pre-wrap;&quot;&gt;status   varchar(10)&lt;br&gt;&lt;br&gt;&lt;/span&gt;" style="text;whiteSpace=wrap;html=1;" vertex="1" parent="35">
                    <mxGeometry y="200" width="150" height="30" as="geometry"/>
                </mxCell>
                <mxCell id="43" value="created_at&amp;nbsp; &amp;nbsp;&lt;span style=&quot;color: rgb(0, 0, 0);&quot;&gt;timestamp&lt;/span&gt;" style="text;strokeColor=none;fillColor=none;align=left;verticalAlign=top;spacingLeft=4;spacingRight=4;overflow=hidden;rotatable=0;points=[[0,0.5],[1,0.5]];portConstraint=eastwest;whiteSpace=wrap;html=1;" vertex="1" parent="35">
                    <mxGeometry y="230" width="150" height="26" as="geometry"/>
                </mxCell>
                <mxCell id="44" value="updated_at&amp;nbsp; &amp;nbsp;&lt;span style=&quot;color: rgb(0, 0, 0);&quot;&gt;timestamp&lt;/span&gt;" style="text;strokeColor=none;fillColor=none;align=left;verticalAlign=top;spacingLeft=4;spacingRight=4;overflow=hidden;rotatable=0;points=[[0,0.5],[1,0.5]];portConstraint=eastwest;whiteSpace=wrap;html=1;" vertex="1" parent="35">
                    <mxGeometry y="256" width="150" height="26" as="geometry"/>
                </mxCell>
                <mxCell id="58" value="Wallets" style="swimlane;fontStyle=0;childLayout=stackLayout;horizontal=1;startSize=26;fillColor=none;horizontalStack=0;resizeParent=1;resizeParentMax=0;resizeLast=0;collapsible=1;marginBottom=0;html=1;" vertex="1" parent="1">
                    <mxGeometry x="330" y="160" width="150" height="222" as="geometry">
                        <mxRectangle x="50" y="170" width="70" height="30" as="alternateBounds"/>
                    </mxGeometry>
                </mxCell>
                <mxCell id="59" value="&lt;span&gt;&lt;/span&gt;&lt;span&gt;&lt;/span&gt;&lt;span style=&quot;white-space:pre-wrap;&quot;&gt;id      uuid      PK&lt;/span&gt;" style="text;strokeColor=none;fillColor=none;align=left;verticalAlign=top;spacingLeft=4;spacingRight=4;overflow=hidden;rotatable=0;points=[[0,0.5],[1,0.5]];portConstraint=eastwest;whiteSpace=wrap;html=1;" vertex="1" parent="58">
                    <mxGeometry y="26" width="150" height="24" as="geometry"/>
                </mxCell>
                <mxCell id="60" value="&lt;span&gt;&lt;/span&gt;&lt;span&gt;&lt;/span&gt;&lt;span style=&quot;white-space:pre-wrap;&quot;&gt;user_id   uuid   FK&lt;br&gt;&lt;/span&gt;" style="text;whiteSpace=wrap;html=1;" vertex="1" parent="58">
                    <mxGeometry y="50" width="150" height="30" as="geometry"/>
                </mxCell>
                <mxCell id="61" value="&lt;span&gt;&lt;/span&gt;&lt;span&gt;&lt;/span&gt;&lt;span style=&quot;white-space:pre-wrap;&quot;&gt;currency_id   uuid   FK&lt;br&gt;&lt;/span&gt;" style="text;whiteSpace=wrap;html=1;" vertex="1" parent="58">
                    <mxGeometry y="80" width="150" height="30" as="geometry"/>
                </mxCell>
                <mxCell id="68" value="&lt;span&gt;&lt;/span&gt;&lt;span&gt;&lt;/span&gt;&lt;span style=&quot;white-space:pre-wrap;&quot;&gt;address   varchar(255)&lt;br&gt;&lt;/span&gt;" style="text;whiteSpace=wrap;html=1;" vertex="1" parent="58">
                    <mxGeometry y="110" width="150" height="30" as="geometry"/>
                </mxCell>
                <mxCell id="69" value="&lt;span&gt;&lt;/span&gt;&lt;span&gt;&lt;/span&gt;&lt;span style=&quot;white-space:pre-wrap;&quot;&gt;balance  numeric(30,10)&lt;br&gt;&lt;br&gt;&lt;/span&gt;" style="text;whiteSpace=wrap;html=1;" vertex="1" parent="58">
                    <mxGeometry y="140" width="150" height="30" as="geometry"/>
                </mxCell>
                <mxCell id="66" value="created_at&amp;nbsp; &amp;nbsp;&lt;span style=&quot;color: rgb(0, 0, 0);&quot;&gt;timestamp&lt;/span&gt;" style="text;strokeColor=none;fillColor=none;align=left;verticalAlign=top;spacingLeft=4;spacingRight=4;overflow=hidden;rotatable=0;points=[[0,0.5],[1,0.5]];portConstraint=eastwest;whiteSpace=wrap;html=1;" vertex="1" parent="58">
                    <mxGeometry y="170" width="150" height="26" as="geometry"/>
                </mxCell>
                <mxCell id="67" value="updated_at&amp;nbsp; &amp;nbsp;&lt;span style=&quot;color: rgb(0, 0, 0);&quot;&gt;timestamp&lt;/span&gt;" style="text;strokeColor=none;fillColor=none;align=left;verticalAlign=top;spacingLeft=4;spacingRight=4;overflow=hidden;rotatable=0;points=[[0,0.5],[1,0.5]];portConstraint=eastwest;whiteSpace=wrap;html=1;" vertex="1" parent="58">
                    <mxGeometry y="196" width="150" height="26" as="geometry"/>
                </mxCell>
                <mxCell id="70" value="Currencies" style="swimlane;fontStyle=0;childLayout=stackLayout;horizontal=1;startSize=26;fillColor=none;horizontalStack=0;resizeParent=1;resizeParentMax=0;resizeLast=0;collapsible=1;marginBottom=0;html=1;" vertex="1" parent="1">
                    <mxGeometry x="100" y="480" width="150" height="192" as="geometry">
                        <mxRectangle x="50" y="170" width="70" height="30" as="alternateBounds"/>
                    </mxGeometry>
                </mxCell>
                <mxCell id="71" value="&lt;span&gt;&lt;/span&gt;&lt;span&gt;&lt;/span&gt;&lt;span style=&quot;white-space:pre-wrap;&quot;&gt;id      uuid      PK&lt;/span&gt;" style="text;strokeColor=none;fillColor=none;align=left;verticalAlign=top;spacingLeft=4;spacingRight=4;overflow=hidden;rotatable=0;points=[[0,0.5],[1,0.5]];portConstraint=eastwest;whiteSpace=wrap;html=1;" vertex="1" parent="70">
                    <mxGeometry y="26" width="150" height="24" as="geometry"/>
                </mxCell>
                <mxCell id="78" value="&lt;span&gt;&lt;/span&gt;&lt;span&gt;&lt;/span&gt;&lt;span style=&quot;white-space:pre-wrap;&quot;&gt;symbol   varchar(10)&lt;br&gt;&lt;br&gt;&lt;/span&gt;" style="text;whiteSpace=wrap;html=1;" vertex="1" parent="70">
                    <mxGeometry y="50" width="150" height="30" as="geometry"/>
                </mxCell>
                <mxCell id="79" value="&lt;span&gt;&lt;/span&gt;&lt;span&gt;&lt;/span&gt;&lt;span style=&quot;white-space:pre-wrap;&quot;&gt;name   varchar(50)&lt;br&gt;&lt;br&gt;&lt;/span&gt;" style="text;whiteSpace=wrap;html=1;" vertex="1" parent="70">
                    <mxGeometry y="80" width="150" height="30" as="geometry"/>
                </mxCell>
                <mxCell id="80" value="&lt;span&gt;&lt;/span&gt;&lt;span&gt;&lt;/span&gt;&lt;span style=&quot;white-space:pre-wrap;&quot;&gt;is_fiat   boolean&lt;br&gt;&lt;br&gt;&lt;/span&gt;" style="text;whiteSpace=wrap;html=1;" vertex="1" parent="70">
                    <mxGeometry y="110" width="150" height="30" as="geometry"/>
                </mxCell>
                <mxCell id="76" value="created_at&amp;nbsp; &amp;nbsp;&lt;span style=&quot;color: rgb(0, 0, 0);&quot;&gt;timestamp&lt;/span&gt;" style="text;strokeColor=none;fillColor=none;align=left;verticalAlign=top;spacingLeft=4;spacingRight=4;overflow=hidden;rotatable=0;points=[[0,0.5],[1,0.5]];portConstraint=eastwest;whiteSpace=wrap;html=1;" vertex="1" parent="70">
                    <mxGeometry y="140" width="150" height="26" as="geometry"/>
                </mxCell>
                <mxCell id="77" value="updated_at&amp;nbsp; &amp;nbsp;&lt;span style=&quot;color: rgb(0, 0, 0);&quot;&gt;timestamp&lt;/span&gt;" style="text;strokeColor=none;fillColor=none;align=left;verticalAlign=top;spacingLeft=4;spacingRight=4;overflow=hidden;rotatable=0;points=[[0,0.5],[1,0.5]];portConstraint=eastwest;whiteSpace=wrap;html=1;" vertex="1" parent="70">
                    <mxGeometry y="166" width="150" height="26" as="geometry"/>
                </mxCell>
                <mxCell id="81" value="Transactions" style="swimlane;fontStyle=0;childLayout=stackLayout;horizontal=1;startSize=26;fillColor=none;horizontalStack=0;resizeParent=1;resizeParentMax=0;resizeLast=0;collapsible=1;marginBottom=0;html=1;" vertex="1" parent="1">
                    <mxGeometry x="-510" y="125" width="150" height="282" as="geometry">
                        <mxRectangle x="50" y="170" width="70" height="30" as="alternateBounds"/>
                    </mxGeometry>
                </mxCell>
                <mxCell id="82" value="&lt;span&gt;&lt;/span&gt;&lt;span&gt;&lt;/span&gt;&lt;span style=&quot;white-space:pre-wrap;&quot;&gt;id      uuid      PK&lt;/span&gt;" style="text;strokeColor=none;fillColor=none;align=left;verticalAlign=top;spacingLeft=4;spacingRight=4;overflow=hidden;rotatable=0;points=[[0,0.5],[1,0.5]];portConstraint=eastwest;whiteSpace=wrap;html=1;" vertex="1" parent="81">
                    <mxGeometry y="26" width="150" height="24" as="geometry"/>
                </mxCell>
                <mxCell id="91" value="&lt;span&gt;&lt;/span&gt;&lt;span&gt;&lt;/span&gt;&lt;span style=&quot;white-space:pre-wrap;&quot;&gt;seller_id   uuid   FK&lt;/span&gt;" style="text;whiteSpace=wrap;html=1;" vertex="1" parent="81">
                    <mxGeometry y="50" width="150" height="30" as="geometry"/>
                </mxCell>
                <mxCell id="92" value="&lt;span&gt;&lt;/span&gt;&lt;span&gt;&lt;/span&gt;&lt;span style=&quot;white-space:pre-wrap;&quot;&gt;buyer_id   uuid   FK&lt;/span&gt;" style="text;whiteSpace=wrap;html=1;" vertex="1" parent="81">
                    <mxGeometry y="80" width="150" height="30" as="geometry"/>
                </mxCell>
                <mxCell id="93" value="&lt;span&gt;&lt;/span&gt;&lt;span&gt;&lt;/span&gt;&lt;span style=&quot;white-space:pre-wrap;&quot;&gt;taker_order   uuid   FK&lt;/span&gt;" style="text;whiteSpace=wrap;html=1;" vertex="1" parent="81">
                    <mxGeometry y="110" width="150" height="30" as="geometry"/>
                </mxCell>
                <mxCell id="94" value="&lt;span&gt;&lt;/span&gt;&lt;span&gt;&lt;/span&gt;&lt;span style=&quot;white-space:pre-wrap;&quot;&gt;maker_order   uuid   FK&lt;/span&gt;" style="text;whiteSpace=wrap;html=1;" vertex="1" parent="81">
                    <mxGeometry y="140" width="150" height="30" as="geometry"/>
                </mxCell>
                <mxCell id="84" value="&lt;span&gt;&lt;/span&gt;&lt;span&gt;&lt;/span&gt;&lt;span style=&quot;white-space:pre-wrap;&quot;&gt;currency_id   uuid   FK&lt;br&gt;&lt;/span&gt;" style="text;whiteSpace=wrap;html=1;" vertex="1" parent="81">
                    <mxGeometry y="170" width="150" height="30" as="geometry"/>
                </mxCell>
                <mxCell id="96" value="&lt;span&gt;&lt;/span&gt;&lt;span&gt;&lt;/span&gt;&lt;span style=&quot;white-space:pre-wrap;&quot;&gt;price   numeric(20,10)&lt;br&gt;&lt;br&gt;&lt;/span&gt;" style="text;whiteSpace=wrap;html=1;" vertex="1" parent="81">
                    <mxGeometry y="200" width="150" height="30" as="geometry"/>
                </mxCell>
                <mxCell id="89" value="created_at&amp;nbsp; &amp;nbsp;&lt;span style=&quot;color: rgb(0, 0, 0);&quot;&gt;timestamp&lt;/span&gt;" style="text;strokeColor=none;fillColor=none;align=left;verticalAlign=top;spacingLeft=4;spacingRight=4;overflow=hidden;rotatable=0;points=[[0,0.5],[1,0.5]];portConstraint=eastwest;whiteSpace=wrap;html=1;" vertex="1" parent="81">
                    <mxGeometry y="230" width="150" height="26" as="geometry"/>
                </mxCell>
                <mxCell id="90" value="updated_at&amp;nbsp; &amp;nbsp;&lt;span style=&quot;color: rgb(0, 0, 0);&quot;&gt;timestamp&lt;/span&gt;" style="text;strokeColor=none;fillColor=none;align=left;verticalAlign=top;spacingLeft=4;spacingRight=4;overflow=hidden;rotatable=0;points=[[0,0.5],[1,0.5]];portConstraint=eastwest;whiteSpace=wrap;html=1;" vertex="1" parent="81">
                    <mxGeometry y="256" width="150" height="26" as="geometry"/>
                </mxCell>
                <mxCell id="98" style="edgeStyle=orthogonalEdgeStyle;html=1;exitX=1;exitY=0.5;exitDx=0;exitDy=0;entryX=0;entryY=0.5;entryDx=0;entryDy=0;endArrow=ERmany;endFill=0;" edge="1" parent="1" source="3" target="60">
                    <mxGeometry relative="1" as="geometry"/>
                </mxCell>
                <mxCell id="99" style="edgeStyle=orthogonalEdgeStyle;html=1;exitX=1;exitY=0.5;exitDx=0;exitDy=0;entryX=0;entryY=0.5;entryDx=0;entryDy=0;endArrow=ERmany;endFill=0;" edge="1" parent="1" source="71" target="61">
                    <mxGeometry relative="1" as="geometry"/>
                </mxCell>
                <mxCell id="100" style="edgeStyle=orthogonalEdgeStyle;html=1;exitX=0;exitY=0.5;exitDx=0;exitDy=0;entryX=1;entryY=0.5;entryDx=0;entryDy=0;endArrow=ERmany;endFill=0;startArrow=none;startFill=0;" edge="1" parent="1" source="3" target="28">
                    <mxGeometry relative="1" as="geometry"/>
                </mxCell>
                <mxCell id="101" style="edgeStyle=orthogonalEdgeStyle;html=1;exitX=0;exitY=0.5;exitDx=0;exitDy=0;entryX=1;entryY=0.5;entryDx=0;entryDy=0;startArrow=none;startFill=0;endArrow=ERmany;endFill=0;" edge="1" parent="1" source="71" target="29">
                    <mxGeometry relative="1" as="geometry"/>
                </mxCell>
                <mxCell id="102" style="edgeStyle=orthogonalEdgeStyle;html=1;exitX=1;exitY=0.5;exitDx=0;exitDy=0;entryX=0;entryY=0.5;entryDx=0;entryDy=0;endArrow=ERmany;endFill=0;" edge="1" parent="1" source="59" target="37">
                    <mxGeometry relative="1" as="geometry"/>
                </mxCell>
                <mxCell id="103" style="edgeStyle=orthogonalEdgeStyle;html=1;exitX=0;exitY=0.5;exitDx=0;exitDy=0;entryX=1;entryY=0.5;entryDx=0;entryDy=0;endArrow=none;endFill=0;startArrow=ERmany;startFill=0;" edge="1" parent="1" source="38" target="59">
                    <mxGeometry relative="1" as="geometry"/>
                </mxCell>
                <mxCell id="104" style="edgeStyle=orthogonalEdgeStyle;html=1;exitX=1;exitY=0.5;exitDx=0;exitDy=0;entryX=0;entryY=0.5;entryDx=0;entryDy=0;endArrow=none;endFill=0;startArrow=ERmany;startFill=0;" edge="1" parent="1" source="91" target="3">
                    <mxGeometry relative="1" as="geometry"/>
                </mxCell>
                <mxCell id="105" style="edgeStyle=orthogonalEdgeStyle;html=1;exitX=1;exitY=0.25;exitDx=0;exitDy=0;entryX=0;entryY=0.5;entryDx=0;entryDy=0;endArrow=none;endFill=0;startArrow=ERmany;startFill=0;" edge="1" parent="1" source="92" target="3">
                    <mxGeometry relative="1" as="geometry"/>
                </mxCell>
                <mxCell id="106" style="edgeStyle=orthogonalEdgeStyle;html=1;exitX=0;exitY=0.5;exitDx=0;exitDy=0;entryX=1;entryY=0.5;entryDx=0;entryDy=0;endArrow=ERmany;endFill=0;" edge="1" parent="1" source="20" target="93">
                    <mxGeometry relative="1" as="geometry"/>
                </mxCell>
                <mxCell id="107" style="edgeStyle=elbowEdgeStyle;html=1;exitX=1;exitY=0.5;exitDx=0;exitDy=0;entryX=0;entryY=0.5;entryDx=0;entryDy=0;endArrow=none;endFill=0;startArrow=ERmany;startFill=0;" edge="1" parent="1" source="94" target="20">
                    <mxGeometry relative="1" as="geometry"/>
                </mxCell>
                <mxCell id="108" style="edgeStyle=orthogonalEdgeStyle;html=1;exitX=1;exitY=0.5;exitDx=0;exitDy=0;entryX=0;entryY=0.5;entryDx=0;entryDy=0;endArrow=none;endFill=0;startArrow=ERmany;startFill=0;" edge="1" parent="1" source="84" target="71">
                    <mxGeometry relative="1" as="geometry">
                        <Array as="points">
                            <mxPoint x="-50" y="310"/>
                            <mxPoint x="-50" y="450"/>
                            <mxPoint x="50" y="450"/>
                            <mxPoint x="50" y="518"/>
                        </Array>
                    </mxGeometry>
                </mxCell>
            </root>
        </mxGraphModel>
    </diagram>
</mxfile>